<svg width="24" height="24" viewBox="0 0 24 24" fill="none" xmlns="http://www.w3.org/2000/svg">
<path d="M6.33814 14.8444C6.45534 13.874 6.85335 13.3307 7.60337 12.7737C8.67651 12.0193 10.017 12.4461 10.017 12.4461V9.91468C10.3429 9.90635 10.6689 9.92567 10.9913 9.97241V13.23C10.9913 13.23 9.65117 12.8033 8.57803 13.5581C7.82841 14.1147 7.4296 14.6584 7.3128 15.6288C7.30914 16.1557 7.40803 16.8446 7.86341 17.4402C7.75082 17.3824 7.63606 17.3166 7.51913 17.2428C6.51598 16.5692 6.33326 15.5586 6.33814 14.8444ZM16.5263 5.23418C15.7881 4.42523 15.5089 3.60848 15.408 3.03473H16.3366C16.3366 3.03473 16.1515 4.53912 17.501 6.01855L17.5197 6.03844C17.156 5.80966 16.8224 5.53962 16.5263 5.23418ZM21 7.52762V10.7197C21 10.7197 19.8149 10.6733 18.9379 10.4502C17.7134 10.1382 16.9263 9.65959 16.9263 9.65959C16.9263 9.65959 16.3826 9.31831 16.3387 9.29451V15.8862C16.3387 16.2533 16.2382 17.1699 15.9317 17.9343C15.5317 18.9344 14.9143 19.5908 14.8008 19.725C14.8008 19.725 14.05 20.6124 12.7253 21.2099C11.5313 21.7489 10.483 21.7353 10.1696 21.7489C10.1696 21.7489 8.35746 21.8207 6.72678 20.761C6.37416 20.5274 6.045 20.2628 5.74358 19.9707L5.75172 19.9766C7.3828 21.0363 9.19457 20.9646 9.19457 20.9646C9.50833 20.9509 10.5566 20.9646 11.7503 20.4255C13.0737 19.828 13.8257 18.9406 13.8257 18.9406C13.938 18.8065 14.5582 18.15 14.9567 17.1496C15.2623 16.3855 15.3636 15.4685 15.3636 15.1015V8.51053C15.4076 8.53471 15.9509 8.876 15.9509 8.876C15.9509 8.876 16.7383 9.35497 17.9628 9.66661C18.8402 9.88972 20.0249 9.93613 20.0249 9.93613V7.43479C20.4302 7.52567 20.7757 7.55025 21 7.52762Z" fill="#EE1D52"/>
<path d="M20.0253 7.43479V9.93535C20.0253 9.93535 18.8407 9.88894 17.9633 9.66583C16.7387 9.3538 15.9513 8.87522 15.9513 8.87522C15.9513 8.87522 15.408 8.53393 15.364 8.50975V15.1022C15.364 15.4693 15.2635 16.3863 14.9571 17.1503C14.557 18.1508 13.9397 18.8072 13.8261 18.9414C13.8261 18.9414 13.0749 19.8288 11.7507 20.4263C10.5571 20.9653 9.50874 20.9517 9.19498 20.9654C9.19498 20.9654 7.38321 21.0371 5.75213 19.9774L5.74399 19.9715C5.57178 19.8048 5.40968 19.6287 5.25849 19.4442C4.73799 18.8096 4.41894 18.0591 4.33877 17.845C4.33863 17.8441 4.33863 17.8432 4.33877 17.8423C4.20976 17.4702 3.93873 16.5766 3.97576 15.7111C4.04128 14.1841 4.57847 13.2468 4.72049 13.012C5.09664 12.3717 5.58587 11.7988 6.16641 11.3188C6.6787 10.9047 7.25936 10.5751 7.88458 10.3437C8.56046 10.072 9.28422 9.92643 10.017 9.91468V12.4461C10.017 12.4461 8.67652 12.0209 7.60378 12.7737C6.85376 13.3307 6.45576 13.874 6.33855 14.8444C6.33367 15.5586 6.51639 16.5692 7.51873 17.2432C7.63566 17.3173 7.75042 17.3831 7.86301 17.4405C8.03812 17.6682 8.25125 17.8665 8.49379 18.0276C9.47293 18.6473 10.2934 18.6906 11.3425 18.2881C12.042 18.019 12.5686 17.4125 12.8128 16.7404C12.9662 16.3207 12.9642 15.8983 12.9642 15.4615V3.03473H15.4059C15.5069 3.60848 15.786 4.42523 16.5243 5.23418C16.8204 5.53962 17.1539 5.80966 17.5176 6.03844C17.6251 6.1496 18.1745 6.69917 18.8797 7.03656C19.2444 7.21096 19.6288 7.34458 20.0253 7.43479V7.43479Z" fill="black"/>
<path d="M3.36695 17.0677V17.0697L3.42754 17.2339C3.42058 17.2148 3.39806 17.1566 3.36695 17.0677Z" fill="#69C9D0"/>
<path d="M7.88461 10.3438C7.25939 10.5752 6.67873 10.9047 6.16644 11.3189C5.58572 11.8 5.09661 12.3741 4.72094 13.0156C4.57891 13.2496 4.04172 14.1877 3.9762 15.7147C3.93917 16.5802 4.2102 17.4738 4.33921 17.8459C4.33907 17.8468 4.33907 17.8477 4.33921 17.8486C4.4206 18.0608 4.73843 18.8112 5.25893 19.4478C5.41012 19.6323 5.57222 19.8084 5.74443 19.9751C5.19268 19.6094 4.7006 19.1672 4.28427 18.663C3.76825 18.0339 3.45001 17.2912 3.36699 17.072C3.36689 17.0705 3.36689 17.0689 3.36699 17.0673V17.0646C3.23758 16.6929 2.96573 15.7989 3.00358 14.9323C3.0691 13.4052 3.60628 12.468 3.74831 12.2332C4.12388 11.5916 4.613 11.0174 5.19382 10.5365C5.706 10.1222 6.28669 9.7926 6.91199 9.56137C7.30202 9.40627 7.70833 9.29185 8.1239 9.22008C8.75019 9.1153 9.38984 9.10622 10.0191 9.19317V9.91475C9.2856 9.92625 8.56113 10.0719 7.88461 10.3438Z" fill="#69C9D0"/>
<path d="M15.408 3.03476H12.9662V15.4619C12.9662 15.8987 12.9662 16.32 12.8148 16.7408C12.5682 17.4125 12.0437 18.019 11.3445 18.2881C10.295 18.6922 9.47455 18.6474 8.49582 18.0276C8.25286 17.8673 8.03918 17.6696 7.86341 17.4425C8.69726 17.8688 9.44362 17.8614 10.3682 17.5057C11.067 17.2366 11.5924 16.6301 11.8382 15.958C11.992 15.5383 11.9899 15.1159 11.9899 14.6795V2.25H15.3616C15.3616 2.25 15.3237 2.55891 15.408 3.03476ZM20.0253 6.74328V7.43483C19.6295 7.34447 19.2458 7.21085 18.8818 7.0366C18.1765 6.69921 17.6271 6.14964 17.5197 6.03848C17.6443 6.11693 17.7737 6.1883 17.9071 6.25222C18.7645 6.66255 19.609 6.78502 20.0253 6.74328Z" fill="#69C9D0"/>
</svg>
